<?xml version="1.0" standalone="no"?>
<!DOCTYPE svg PUBLIC "-//W3C//DTD SVG 20010904//EN"
 "http://www.w3.org/TR/2001/REC-SVG-20010904/DTD/svg10.dtd">
<svg version="1.0" xmlns="http://www.w3.org/2000/svg"
 width="214.000000pt" height="61.000000pt" viewBox="0 0 214.000000 61.000000"
 preserveAspectRatio="xMidYMid meet">

<g transform="translate(0.000000,61.000000) scale(0.100000,-0.100000)"
fill="#000000" stroke="none">
<path d="M70 300 l0 -240 1015 0 1015 0 0 240 0 240 -1015 0 -1015 0 0 -240z
m2000 0 l0 -210 -985 0 -985 0 0 210 0 210 985 0 985 0 0 -210z"/>
<path d="M450 275 c0 -113 2 -135 15 -135 13 0 15 22 15 135 0 113 -2 135 -15
135 -13 0 -15 -22 -15 -135z"/>
<path d="M790 275 c0 -113 2 -135 15 -135 13 0 15 22 15 135 0 113 -2 135 -15
135 -13 0 -15 -22 -15 -135z"/>
<path d="M1130 275 c0 -113 2 -135 15 -135 13 0 15 22 15 135 0 113 -2 135
-15 135 -13 0 -15 -22 -15 -135z"/>
<path d="M1450 274 c0 -104 3 -135 13 -132 8 3 13 42 15 136 2 113 0 132 -13
132 -13 0 -15 -21 -15 -136z"/>
<path d="M1772 278 c3 -110 6 -133 18 -133 12 0 15 23 18 133 2 127 2 132 -18
132 -20 0 -20 -5 -18 -132z"/>
<path d="M216 363 c-6 -28 -25 -161 -26 -175 0 -5 6 -8 13 -8 8 0 18 17 24 38
l10 37 2 -37 c1 -43 27 -54 34 -15 l4 22 2 -22 c0 -13 7 -23 15 -23 14 0 20
22 31 115 3 28 8 60 11 73 4 20 1 23 -17 20 -17 -2 -27 -16 -40 -53 l-17 -50
-1 53 c-1 44 -4 52 -20 52 -13 0 -21 -9 -25 -27z"/>
<path d="M596 378 c-5 -16 -26 -169 -26 -185 0 -7 7 -13 15 -13 8 0 15 9 15
20 0 11 5 20 10 20 6 0 10 -9 10 -20 0 -33 29 -23 35 13 9 57 25 162 25 170 0
4 -6 7 -14 7 -8 0 -18 -17 -24 -37 l-10 -38 -1 38 c-1 26 -5 37 -16 37 -9 0
-17 -6 -19 -12z"/>
<path d="M940 383 c0 -8 -16 -113 -25 -171 -6 -31 -5 -32 29 -32 19 0 38 6 42
12 14 22 31 166 22 182 -9 16 -68 23 -68 9z m35 -85 c-4 -35 -11 -70 -17 -78
-9 -15 -4 48 8 113 10 51 16 27 9 -35z"/>
<path d="M1296 363 c-3 -16 -8 -50 -11 -78 -4 -27 -9 -62 -11 -77 -5 -26 -3
-28 25 -28 21 0 31 5 31 15 0 8 -5 15 -11 15 -8 0 -9 15 -5 45 3 25 9 65 12
90 5 36 3 45 -9 45 -9 0 -18 -12 -21 -27z"/>
<path d="M1594 376 c-3 -8 -11 -55 -18 -105 -12 -86 -11 -91 6 -91 13 0 18 8
19 28 0 15 5 36 10 47 7 15 8 7 5 -28 -3 -40 -1 -48 13 -45 11 2 17 16 19 48
1 25 7 65 14 89 10 39 9 45 -7 57 -24 18 -54 18 -61 0z m29 -67 c-6 -6 -7 3
-4 23 4 28 6 29 9 9 2 -13 0 -27 -5 -32z"/>
<path d="M1912 301 c-15 -113 -15 -121 3 -121 10 0 15 11 16 38 l1 37 10 -37
c14 -53 35 -49 43 10 4 26 11 71 16 101 5 30 7 56 4 59 -12 12 -34 -11 -38
-40 l-4 -33 -1 38 c-2 29 -6 37 -20 37 -16 0 -20 -14 -30 -89z"/>
</g>
</svg>
